<svg xmlns="http://www.w3.org/2000/svg" version="1.1" xmlns:xlink="http://www.w3.org/1999/xlink" xmlns:svgjs="http://svgjs.dev/svgjs" width="1000" height="169" viewBox="0 0 1000 169"><g transform="matrix(1,0,0,1,-0.6060158438862686,-0.21445541832655124)"><svg viewBox="0 0 396 67" data-background-color="#aaaaaa" preserveAspectRatio="xMidYMid meet" height="169" width="1000" xmlns="http://www.w3.org/2000/svg" xmlns:xlink="http://www.w3.org/1999/xlink"><g id="tight-bounds" transform="matrix(1,0,0,1,0.23998227417897056,0.08502078714721506)"><svg viewBox="0 0 395.5199999999999 66.82995631661714" height="66.82995631661714" width="395.5199999999999"><g><svg viewBox="0 0 395.52000000000004 66.82995631661716" height="66.82995631661714" width="395.5199999999999"><g><svg viewBox="0 0 395.52000000000004 66.82995631661716" height="66.82995631661716" width="395.52000000000004"><g><svg viewBox="0 0 395.52000000000004 66.82995631661716" height="66.82995631661716" width="395.52000000000004"><g><svg viewBox="0 0 395.52000000000004 66.82995631661716" height="66.82995631661716" width="395.52000000000004"><g transform="matrix(1,0,0,1,0,0)"><svg width="395.52000000000004" viewBox="-0.800000011920929 -47 286.1299743652344 48.349998474121094" height="66.82995631661716" data-palette-color="#ffffff"><path d="M48.7-11.15Q49.35-11.15 49.73-10.55 50.1-9.95 50.1-8.9L50.1-8.9Q50.1-6.95 49.15-5.8L49.15-5.8Q44.2 0.25 38.6 0.25L38.6 0.25Q33.75 0.25 30.85-3.5 27.95-7.25 27.95-14.25L27.95-14.25Q27.95-15.95 28.1-17.65L28.1-17.65Q24.8-17.05 20.9-16.75L20.9-16.75Q18.3-16.55 17.35-16.5L17.35-16.5Q16.35-11.4 14.55-4L14.55-4Q13.5 0.35 10.55 0.35L10.55 0.35Q7.35 0.35 7.35-2.55L7.35-2.55Q7.35-3.2 7.6-4.35L7.6-4.35Q9.3-11.2 10.3-15.95L10.3-15.95 7.9-15.85Q6.25-15.85 5.5-16.43 4.75-17 4.75-18.3L4.75-18.3Q4.75-19.95 5.7-20.73 6.65-21.5 8.85-21.6L8.85-21.6 11.5-21.7Q12.8-28.75 12.8-32.45L12.8-32.45Q12.8-34.8 12.1-35.65 11.4-36.5 10.25-36.5L10.25-36.5Q6.75-36.5 2.35-30.65L2.35-30.65Q1.7-29.8 0.9-29.8L0.9-29.8Q0.2-29.8-0.3-30.45-0.8-31.1-0.8-32.1L-0.8-32.1Q-0.8-33.65 0.45-35.4L0.45-35.4Q2.65-38.45 6-40.43 9.35-42.4 12.8-42.4L12.8-42.4Q16.05-42.4 17.82-40.18 19.6-37.95 19.6-33.25L19.6-33.25Q19.6-29.1 18.4-22L18.4-22 23.3-22.25Q26.45-22.4 28.7-22.75L28.7-22.75Q29.6-28.25 31.45-33.05 33.3-37.85 36.05-40.85 38.8-43.85 42.2-43.85L42.2-43.85Q44.7-43.85 46.15-41.88 47.6-39.9 47.6-36.7L47.6-36.7Q47.6-24.3 34.95-19.5L34.95-19.5Q34.8-17.5 34.8-15.35L34.8-15.35Q34.8-10.1 36.1-7.9 37.4-5.7 39.75-5.7L39.75-5.7Q41.8-5.7 43.5-6.78 45.2-7.85 47.35-10.45L47.35-10.45Q47.95-11.15 48.7-11.15L48.7-11.15ZM41.95-39.5Q40.85-39.5 39.63-37.5 38.4-35.5 37.3-32.05 36.2-28.6 35.55-24.5L35.55-24.5Q39.55-26.15 41.45-29.2 43.35-32.25 43.35-37.05L43.35-37.05Q43.35-38.2 42.95-38.85 42.55-39.5 41.95-39.5L41.95-39.5ZM52.2 0.25Q49.1 0.25 47.25-2 45.4-4.25 45.4-7.9L45.4-7.9Q45.4-11.9 47.25-15.48 49.1-19.05 52.17-21.23 55.25-23.4 58.7-23.4L58.7-23.4Q59.8-23.4 60.17-22.98 60.55-22.55 60.8-21.45L60.8-21.45Q61.85-21.65 63-21.65L63-21.65Q65.45-21.65 65.45-19.9L65.45-19.9Q65.45-18.85 64.7-14.9L64.7-14.9Q63.55-9.15 63.55-6.9L63.55-6.9Q63.55-6.15 63.92-5.7 64.3-5.25 64.9-5.25L64.9-5.25Q65.85-5.25 67.2-6.48 68.55-7.7 70.85-10.45L70.85-10.45Q71.45-11.15 72.2-11.15L72.2-11.15Q72.85-11.15 73.22-10.55 73.6-9.95 73.6-8.9L73.6-8.9Q73.6-6.9 72.65-5.8L72.65-5.8Q70.6-3.25 68.3-1.5 66 0.25 63.85 0.25L63.85 0.25Q62.2 0.25 60.82-0.88 59.45-2 58.75-3.95L58.75-3.95Q56.15 0.25 52.2 0.25L52.2 0.25ZM54-4.8Q55.1-4.8 56.1-6.1 57.1-7.4 57.55-9.55L57.55-9.55 59.4-18.75Q57.3-18.7 55.52-17.18 53.75-15.65 52.7-13.15 51.65-10.65 51.65-7.85L51.65-7.85Q51.65-6.3 52.27-5.55 52.9-4.8 54-4.8L54-4.8ZM107.35-15.2Q107.5-15.25 107.85-15.25L107.85-15.25Q108.6-15.25 109-14.75 109.4-14.25 109.4-13.4L109.4-13.4Q109.4-11.85 108.8-10.98 108.2-10.1 107-9.7L107-9.7Q104.7-8.95 102.1-8.95L102.1-8.95Q99.9-8.95 97.95-9.55L97.95-9.55Q96.5-7.2 94.75-4.7L94.75-4.7Q92.75-1.85 91.32-0.8 89.9 0.25 88.1 0.25L88.1 0.25Q86.1 0.25 85.07-1.3 84.05-2.85 83.8-6.4L83.8-6.4 83.55-10.05Q82-5.85 80.77-3.65 79.55-1.45 78.32-0.6 77.1 0.25 75.45 0.25L75.45 0.25Q73.4 0.25 72.22-1.35 71.05-2.95 70.75-6.4L70.75-6.4Q70.15-13.4 70.15-18.65L70.15-18.65 70.15-20.4Q70.2-22.05 71.05-22.7 71.9-23.35 73.6-23.35L73.6-23.35Q74.9-23.35 75.52-22.78 76.15-22.2 76.15-20.85L76.15-20.85Q76.15-15.1 76.85-5.9L76.85-5.9Q80.25-13.05 83.1-20.8L83.1-20.8Q83.65-22.3 84.42-22.83 85.2-23.35 86.3-23.35L86.3-23.35Q87.65-23.35 88.17-22.8 88.7-22.25 88.7-20.85L88.7-20.85Q88.7-15.1 89.4-5.9L89.4-5.9Q92.4-10.35 93.9-13L93.9-13Q93.15-14.45 93.15-16.45L93.15-16.45Q93.15-18.15 93.9-19.75 94.65-21.35 95.95-22.35 97.25-23.35 98.9-23.35L98.9-23.35Q100.35-23.35 101.25-22.33 102.15-21.3 102.15-19.35L102.15-19.35Q102.15-17.1 100.95-14.2L100.95-14.2Q102.85-14.3 106-14.95L106-14.95 107.35-15.2ZM133.94-11.15Q134.59-11.15 134.97-10.55 135.34-9.95 135.34-8.9L135.34-8.9Q135.34-6.9 134.39-5.8L134.39-5.8Q132.14-3.05 129.84-1.4 127.54 0.25 124.39 0.25L124.39 0.25Q120.54 0.25 118.19-1.95 115.84-4.15 115.84-7.8L115.84-7.8Q115.84-9.75 117.84-10.6L117.84-10.6Q120.04-11.55 120.99-12.63 121.94-13.7 121.94-15.25L121.94-15.25Q121.94-16.15 121.57-16.6 121.19-17.05 120.64-17.05L120.64-17.05Q119.29-17.05 117.67-15.1 116.04-13.15 114.64-10.08 113.24-7 112.44-3.75L112.44-3.75Q111.89-1.4 111.17-0.58 110.44 0.25 108.89 0.25L108.89 0.25Q107.34 0.25 106.62-0.88 105.89-2 105.64-4.35 105.39-6.7 105.39-11.25L105.39-11.25Q105.39-18.95 106.97-27.3 108.54-35.65 111.62-41.33 114.69-47 118.99-47L118.99-47Q121.29-47 122.72-45.03 124.14-43.05 124.14-39.9L124.14-39.9Q124.14-34.85 121.19-29.43 118.24-24 111.59-16.75L111.59-16.75Q111.44-14.15 111.44-11.4L111.44-11.4Q113.84-17.65 116.94-20.48 120.04-23.3 122.74-23.3L122.74-23.3Q125.24-23.3 126.77-21.6 128.29-19.9 128.29-17.4L128.29-17.4Q128.29-14.65 126.89-12.35 125.49-10.05 122.09-8.25L122.09-8.25Q122.29-6.9 123.32-6.08 124.34-5.25 125.79-5.25L125.79-5.25Q127.34-5.25 128.79-6.45 130.24-7.65 132.59-10.45L132.59-10.45Q133.19-11.15 133.94-11.15L133.94-11.15ZM117.94-42.05Q117.04-42.05 115.94-39.48 114.84-36.9 113.82-32.52 112.79-28.15 112.14-23L112.14-23Q115.24-26.65 117.27-30.95 119.29-35.25 119.29-38.75L119.29-38.75Q119.29-40.35 118.94-41.2 118.59-42.05 117.94-42.05L117.94-42.05ZM153.74 0.25Q151.89 0.25 151.09-0.58 150.29-1.4 150.29-3.7L150.29-3.7Q150.29-5.25 150.61-7.68 150.94-10.1 151.69-14.35L151.69-14.35Q152.99-22.2 153.74-27.95L153.74-27.95Q154.19-31.55 154.19-33.95L154.19-33.95Q154.19-36.2 152.54-36.2L152.54-36.2Q151.24-36.2 149.41-34.88 147.59-33.55 145.39-30.65L145.39-30.65Q144.69-29.7 143.84-29.7L143.84-29.7Q143.14-29.7 142.61-30.38 142.09-31.05 142.09-31.9L142.09-31.9Q142.09-32.7 142.41-33.52 142.74-34.35 143.49-35.4L143.49-35.4Q145.89-38.75 148.84-40.58 151.79-42.4 154.74-42.4L154.74-42.4Q157.49-42.4 158.96-40.65 160.44-38.9 160.44-35.55L160.44-35.55Q160.44-34.2 160.19-32.38 159.94-30.55 159.74-29.4 159.54-28.25 159.44-27.8L159.44-27.8Q162.29-35.95 165.84-39.18 169.39-42.4 173.64-42.4L173.64-42.4Q176.89-42.4 178.76-40.1 180.64-37.8 180.64-33.6L180.64-33.6Q180.64-31.95 180.19-29.5L180.19-29.5Q182.69-36.4 186.04-39.4 189.39-42.4 193.74-42.4L193.74-42.4Q197.24-42.4 199.11-40.15 200.99-37.9 200.99-33.85L200.99-33.85Q200.99-31.65 200.34-28.5L200.34-28.5 197.29-14.2Q196.79-11.7 196.79-9.9L196.79-9.9Q196.79-7.8 197.76-6.75 198.74-5.7 200.49-5.7L200.49-5.7Q202.14-5.7 203.71-6.8 205.29-7.9 207.44-10.45L207.44-10.45Q208.04-11.15 208.79-11.15L208.79-11.15Q209.44-11.15 209.81-10.55 210.19-9.95 210.19-8.9L210.19-8.9Q210.19-6.95 209.24-5.8L209.24-5.8Q206.64-2.65 204.09-1.2 201.54 0.25 198.74 0.25L198.74 0.25Q194.49 0.25 192.09-2.27 189.69-4.8 189.69-9.05L189.69-9.05Q189.69-12 190.89-17.6L190.89-17.6 192.89-26.75Q192.99-27.2 193.24-28.35 193.49-29.5 193.64-30.53 193.79-31.55 193.79-32.55L193.79-32.55Q193.79-34.3 193.11-35.18 192.44-36.05 191.19-36.05L191.19-36.05Q188.84-36.05 186.26-33.02 183.69-30 181.36-23 179.04-16 177.59-4.8L177.59-4.8Q177.24-1.8 176.36-0.78 175.49 0.25 173.54 0.25L173.54 0.25Q171.84 0.25 171.06-0.55 170.29-1.35 170.29-3.55L170.29-3.55Q170.29-5.6 170.84-8.93 171.39-12.25 172.24-16.75L172.24-16.75Q174.54-28.85 174.54-32.35L174.54-32.35Q174.54-34.25 173.81-35.15 173.09-36.05 171.64-36.05L171.64-36.05Q169.19-36.05 166.59-33.27 163.99-30.5 161.51-23.43 159.04-16.35 157.39-4.3L157.39-4.3Q157.04-1.75 156.36-0.75 155.69 0.25 153.74 0.25L153.74 0.25ZM211.24 0.25Q208.99 0.25 207.56-1.83 206.14-3.9 206.14-7L206.14-7Q206.14-10.75 206.64-13.88 207.14-17 208.29-20.5L208.29-20.5Q208.79-22 209.69-22.65 210.59-23.3 212.54-23.3L212.54-23.3Q213.64-23.3 214.06-22.95 214.49-22.6 214.49-21.9L214.49-21.9Q214.49-21.5 213.94-19.2L213.94-19.2Q213.44-17.35 213.14-15.85L213.14-15.85Q212.14-10.6 212.14-8.85L212.14-8.85Q212.14-7.8 212.39-7.38 212.64-6.95 213.19-6.95L213.19-6.95Q213.94-6.95 215.06-8.45 216.19-9.95 217.46-13 218.74-16.05 219.94-20.5L219.94-20.5Q220.34-22 221.16-22.65 221.99-23.3 223.64-23.3L223.64-23.3Q224.79-23.3 225.24-23.03 225.69-22.75 225.69-22L225.69-22Q225.69-20.75 224.44-15.15L224.44-15.15Q223.04-8.75 223.04-7.25L223.04-7.25Q223.04-6.3 223.44-5.78 223.84-5.25 224.49-5.25L224.49-5.25Q225.49-5.25 226.86-6.48 228.24-7.7 230.54-10.45L230.54-10.45Q231.14-11.15 231.89-11.15L231.89-11.15Q232.54-11.15 232.91-10.55 233.29-9.95 233.29-8.9L233.29-8.9Q233.29-6.9 232.34-5.8L232.34-5.8Q230.19-3.15 227.71-1.45 225.24 0.25 222.09 0.25L222.09 0.25Q219.69 0.25 218.56-1.6 217.44-3.45 217.44-6.8L217.44-6.8Q216.59-3.4 214.89-1.58 213.19 0.25 211.24 0.25L211.24 0.25ZM238.53 1.35Q235.93 1.35 234.56 0.15 233.18-1.05 233.18-2.55L233.18-2.55Q233.18-3.85 234.13-4.8 235.08-5.75 236.93-5.75L236.93-5.75Q237.58-5.75 238.46-5.63 239.33-5.5 239.78-5.45L239.78-5.45Q239.73-6.75 239.21-7.9 238.68-9.05 237.88-10.13 237.08-11.2 236.38-12L236.38-12Q234.83-9.05 233.31-7.1 231.78-5.15 229.98-3.4L229.98-3.4Q229.08-2.5 228.08-2.5L228.08-2.5Q227.28-2.5 226.78-3.08 226.28-3.65 226.28-4.5L226.28-4.5Q226.28-5.5 226.98-6.35L226.98-6.35 227.63-7.15Q230.38-10.55 231.78-12.75L231.78-12.75Q232.63-14.2 233.78-16.63 234.93-19.05 236.03-21.65L236.03-21.65Q236.98-23.85 239.98-23.85L239.98-23.85Q241.38-23.85 241.93-23.6 242.48-23.35 242.48-22.8L242.48-22.8Q242.48-22.5 242.28-21.85 242.08-21.2 241.73-20.55L241.73-20.55Q240.83-18.75 240.83-17.5L240.83-17.5Q240.83-16.75 241.36-15.85 241.88-14.95 242.98-13.6L242.98-13.6Q244.58-11.5 245.41-10.03 246.23-8.55 246.23-6.8L246.23-6.8Q246.23-6.3 246.13-5.4L246.13-5.4Q248.58-6.35 251.88-10.45L251.88-10.45Q252.48-11.15 253.23-11.15L253.23-11.15Q253.88-11.15 254.26-10.55 254.63-9.95 254.63-8.9L254.63-8.9Q254.63-7 253.68-5.8L253.68-5.8Q251.18-2.7 248.91-1.58 246.63-0.45 243.28-0.35L243.28-0.35Q241.28 1.35 238.53 1.35L238.53 1.35ZM257.13-26.6Q255.03-26.6 253.98-27.58 252.93-28.55 252.93-30.3L252.93-30.3Q252.93-32.05 254.31-33.23 255.68-34.4 257.73-34.4L257.73-34.4Q259.58-34.4 260.73-33.5 261.88-32.6 261.88-30.95L261.88-30.95Q261.88-28.95 260.58-27.78 259.28-26.6 257.13-26.6L257.13-26.6ZM256.73 0.25Q253.48 0.25 252-2.05 250.53-4.35 250.53-8.15L250.53-8.15Q250.53-10.4 251.11-13.93 251.68-17.45 252.58-20.5L252.58-20.5Q253.03-22.1 253.78-22.7 254.53-23.3 256.18-23.3L256.18-23.3Q258.73-23.3 258.73-21.6L258.73-21.6Q258.73-20.35 257.78-15.8L257.78-15.8Q256.58-10.3 256.58-8.35L256.58-8.35Q256.58-6.85 256.98-6.05 257.38-5.25 258.33-5.25L258.33-5.25Q259.23-5.25 260.58-6.5 261.93-7.75 264.18-10.45L264.18-10.45Q264.78-11.15 265.53-11.15L265.53-11.15Q266.18-11.15 266.56-10.55 266.93-9.95 266.93-8.9L266.93-8.9Q266.93-6.9 265.98-5.8L265.98-5.8Q261.03 0.25 256.73 0.25L256.73 0.25ZM272.43 0.25Q267.53 0.25 264.8-2.53 262.08-5.3 262.08-9.85L262.08-9.85Q262.08-13.9 263.68-16.95 265.28-20 267.83-21.65 270.38-23.3 273.18-23.3L273.18-23.3Q275.93-23.3 277.45-21.68 278.98-20.05 278.98-17.5L278.98-17.5Q278.98-15.4 278.05-13.95 277.13-12.5 275.63-12.5L275.63-12.5Q274.68-12.5 274.1-12.95 273.53-13.4 273.53-14.2L273.53-14.2Q273.53-14.55 273.63-15 273.73-15.45 273.78-15.65L273.78-15.65Q274.03-16.4 274.03-17.05L274.03-17.05Q274.03-17.7 273.7-18.05 273.38-18.4 272.78-18.4L272.78-18.4Q271.63-18.4 270.63-17.38 269.63-16.35 269.03-14.6 268.43-12.85 268.43-10.75L268.43-10.75Q268.43-4.95 273.48-4.95L273.48-4.95Q275.53-4.95 277.9-6.33 280.28-7.7 282.58-10.45L282.58-10.45Q283.18-11.15 283.93-11.15L283.93-11.15Q284.58-11.15 284.95-10.55 285.33-9.95 285.33-8.9L285.33-8.9Q285.33-7 284.38-5.8L284.38-5.8Q282.03-2.9 278.75-1.33 275.48 0.25 272.43 0.25L272.43 0.25Z" opacity="1" transform="matrix(1,0,0,1,0,0)" fill="#ffffff" class="undefined-text-0" data-fill-palette-color="primary" id="text-0"></path></svg></g></svg></g></svg></g></svg></g></svg></g><defs></defs></svg><rect width="395.5199999999999" height="66.82995631661714" fill="none" stroke="none" visibility="hidden"></rect></g></svg></g></svg>